<svg width="14" height="14" viewBox="0 0 14 14" fill="none" xmlns="http://www.w3.org/2000/svg">
<path d="M13 13L9 9" stroke="#E2E2E2"/>
<path fill-rule="evenodd" clip-rule="evenodd" d="M6 11C7.32608 11 8.59785 10.4732 9.53553 9.53553C10.4732 8.59785 11 7.32608 11 6C11 4.67392 10.4732 3.40215 9.53553 2.46447C8.59785 1.52678 7.32608 1 6 1C4.67392 1 3.40215 1.52678 2.46447 2.46447C1.52678 3.40215 1 4.67392 1 6C1 7.32608 1.52678 8.59785 2.46447 9.53553C3.40215 10.4732 4.67392 11 6 11V11ZM6 10C7.06087 10 8.07828 9.57857 8.82843 8.82843C9.57857 8.07828 10 7.06087 10 6C10 4.93913 9.57857 3.92172 8.82843 3.17157C8.07828 2.42143 7.06087 2 6 2C4.93913 2 3.92172 2.42143 3.17157 3.17157C2.42143 3.92172 2 4.93913 2 6C2 7.06087 2.42143 8.07828 3.17157 8.82843C3.92172 9.57857 4.93913 10 6 10V10Z" fill="#E2E2E2"/>
</svg>
